<svg xmlns="http://www.w3.org/2000/svg" viewBox="0 0 460 93"><g transform="translate(0,68.7)"><path d="M20.72 14.4V-44.0H29.28V-35.68Q30.16 -40.0 33.32 -42.400000000000006Q36.480000000000004 -44.800000000000004 41.28 -44.800000000000004Q47.84 -44.800000000000004 51.760000000000005 -40.28Q55.68 -35.76 55.68 -28.240000000000002V-15.84Q55.68 -8.24 51.760000000000005 -3.72Q47.84 0.8 41.28 0.8Q36.480000000000004 0.8 33.28 -1.7200000000000002Q30.080000000000002 -4.24 29.200000000000003 -8.64H29.12L29.36 1.84V14.4ZM38.24 -6.72Q42.400000000000006 -6.72 44.72 -8.92Q47.04 -11.120000000000001 47.04 -16.0V-28.080000000000002Q47.04 -32.88 44.72 -35.08Q42.400000000000006 -37.28 38.24 -37.28Q34.08 -37.28 31.72 -34.760000000000005Q29.36 -32.24 29.36 -27.68V-16.4Q29.36 -11.76 31.72 -9.24Q34.08 -6.72 38.24 -6.72Z M74.48 14.4V6.96H86.88Q90.48 6.96 92.56 4.96Q94.64 2.96 94.64 -0.48V-3.7600000000000002L94.8 -11.120000000000001Q93.76 -7.2 90.68 -5.04Q87.6 -2.88 83.03999999999999 -2.88Q76.24 -2.88 72.32 -7.279999999999999Q68.4 -11.68 68.4 -19.36V-28.240000000000002Q68.4 -35.84 72.32 -40.32000000000001Q76.24 -44.800000000000004 83.03999999999999 -44.800000000000004Q87.6 -44.800000000000004 90.64 -42.64Q93.68 -40.480000000000004 94.72 -36.56V-44.0H103.2V-0.32Q103.2 6.48 98.84 10.440000000000001Q94.48 14.4 86.96000000000001 14.4ZM85.84 -10.16Q89.92 -10.16 92.28 -12.68Q94.64 -15.200000000000001 94.64 -19.76V-27.76Q94.64 -32.24 92.28 -34.760000000000005Q89.92 -37.28 85.84 -37.28Q81.6 -37.28 79.32 -34.88Q77.04 -32.480000000000004 77.04 -28.32V-19.2Q77.04 -14.96 79.32 -12.56Q81.6 -10.16 85.84 -10.16Z" fill="#336791"/><path d="M113.44 0.0 128.88 -22.72 114.4 -44.0H124.32L132.08 -31.84Q132.64 -30.88 133.2 -29.799999999999997Q133.76 -28.72 134.08 -28.0Q134.32 -28.72 134.84 -29.799999999999997Q135.36 -30.88 136.0 -31.84L143.68 -44.0H153.68L139.2 -22.64L154.56 0.0H144.64L136.08 -13.200000000000001Q135.52 -14.16 134.96 -15.36Q134.4 -16.56 134.08 -17.28Q133.68 -16.56 133.12 -15.36Q132.56 -14.16 131.92000000000002 -13.200000000000001L123.36 0.0Z" fill="#249361"/><path d="M180.24 0.72Q172.64 0.72 168.32 -2.72Q164.0 -6.16 164.0 -12.32H172.56Q172.56 -9.52 174.56 -7.96Q176.56 -6.4 180.24 -6.4H183.76Q187.52 -6.4 189.60000000000002 -7.96Q191.68 -9.52 191.68 -12.4Q191.68 -17.44 186.32 -18.16L174.72 -19.76Q169.84 -20.400000000000002 167.16 -23.64Q164.48 -26.88 164.48 -32.08Q164.48 -38.08 168.56 -41.4Q172.64 -44.72 180.08 -44.72H183.68Q190.56 -44.72 194.84 -41.44Q199.12 -38.160000000000004 199.36 -32.8H190.72Q190.56 -34.96 188.68 -36.36Q186.8 -37.76 183.68 -37.76H180.08Q176.64 -37.76 174.76 -36.239999999999995Q172.88 -34.72 172.88 -32.160000000000004Q172.88 -28.080000000000002 177.44 -27.44L188.32 -26.0Q200.07999999999998 -24.400000000000002 200.07999999999998 -12.48Q200.07999999999998 -6.16 195.83999999999997 -2.72Q191.6 0.72 183.76 0.72Z M212.48 0.0V-7.84H227.76V-36.160000000000004H214.08V-44.0H236.4V-7.84H250.56V0.0ZM231.36 -51.6Q228.56 -51.6 226.88 -53.08Q225.20000000000002 -54.56 225.20000000000002 -57.04Q225.20000000000002 -59.6 226.88 -61.08Q228.56 -62.56 231.36 -62.56Q234.16000000000003 -62.56 235.84000000000003 -61.08Q237.52 -59.6 237.52 -57.04Q237.52 -54.56 235.84000000000003 -53.08Q234.16000000000003 -51.6 231.36 -51.6Z M260.72 0.0V-44.0H269.28V-35.6Q269.92 -39.92 273.0 -42.36Q276.08 -44.800000000000004 281.04 -44.800000000000004Q287.6 -44.800000000000004 291.52 -40.6Q295.44 -36.4 295.44 -29.28V0.0H286.8V-28.0Q286.8 -32.56 284.48 -35.0Q282.16 -37.44 278.16 -37.44Q274.08 -37.44 271.72 -34.879999999999995Q269.36 -32.32 269.36 -27.76V0.0Z M309.12 0.0V-58.4H317.76V-26.32H325.52L336.88 -44.0H346.56L333.04 -22.88L347.2 0.0H337.28L325.6 -18.88H317.76V0.0Z M356.48 0.0V-7.84H371.76V-36.160000000000004H358.08V-44.0H380.4V-7.84H394.56V0.0ZM375.36 -51.6Q372.56 -51.6 370.88 -53.08Q369.2 -54.56 369.2 -57.04Q369.2 -59.6 370.88 -61.08Q372.56 -62.56 375.36 -62.56Q378.16 -62.56 379.84000000000003 -61.08Q381.52000000000004 -59.6 381.52000000000004 -57.04Q381.52000000000004 -54.56 379.84000000000003 -53.08Q378.16 -51.6 375.36 -51.6Z M426.4 0.0Q420.56 0.0 417.12 -3.36Q413.68 -6.72 413.68 -12.48V-36.160000000000004H401.28V-44.0H413.68V-56.4H422.32V-44.0H440.08V-36.160000000000004H422.32V-12.56Q422.32 -10.48 423.52 -9.16Q424.72 -7.84 426.8 -7.84H439.68V0.0Z" fill="#11181C"/></g></svg>